<svg viewBox="0 0 512 512" xmlns="http://www.w3.org/2000/svg" xmlns:xlink="http://www.w3.org/1999/xlink">
    <style>
        :root>svg{display:none}:root>svg:target{display:block}
    </style>
    <svg fill="none" viewBox="0 0 7 6" id="arrow" xmlns="http://www.w3.org/2000/svg">
        <path d="M1.992.98a1 1 0 00-.803 1.597l1.509 2.026a1 1 0 001.604 0l1.509-2.026A1 1 0 005.008.98H1.992z" fill="#000"/>
    </svg>
    <svg fill="none" viewBox="0 0 18 16" id="camera" xmlns="http://www.w3.org/2000/svg">
        <path d="M2.333 2.333h2.5L6.499.667h5l1.667 1.666h2.5A1.667 1.667 0 0117.333 4v10a1.667 1.667 0 01-1.667 1.667H2.333A1.667 1.667 0 01.666 14V4a1.667 1.667 0 011.667-1.667zm6.666 2.5a4.167 4.167 0 100 8.334 4.167 4.167 0 000-8.334zM9 6.5a2.5 2.5 0 110 5 2.5 2.5 0 010-5z" fill="#000"/>
    </svg>
    <svg fill="none" viewBox="0 0 14 14" id="close" xmlns="http://www.w3.org/2000/svg">
        <path d="M14 1.41L12.59 0 7 5.59 1.41 0 0 1.41 5.59 7 0 12.59 1.41 14 7 8.41 12.59 14 14 12.59 8.41 7 14 1.41z" fill="#fff"/>
    </svg>
    <svg fill="none" viewBox="0 0 16 16" id="dislike" xmlns="http://www.w3.org/2000/svg">
        <path opacity=".3" d="M12.666 10h2.667V2h-2.667v8zM10 2H4c-.554 0-1.027.333-1.227.813L.76 7.513C.7 7.667.667 7.827.667 8v1.333A1.333 1.333 0 002 10.667h4.207l-.634 3.046a.992.992 0 00.273.913l.707.707 4.387-4.393c.247-.24.393-.573.393-.94V3.333c0-.74-.6-1.333-1.333-1.333z" fill="#000"/>
    </svg>
    <svg fill="none" viewBox="0 0 18 13" id="eye" xmlns="http://www.w3.org/2000/svg">
        <path d="M9 4.182A2.455 2.455 0 109 9.09a2.455 2.455 0 000-4.91zm0 6.545a4.09 4.09 0 110-8.181 4.09 4.09 0 010 8.181zM9 .5C4.91.5 1.415 3.045 0 6.636c1.415 3.592 4.91 6.137 9 6.137s7.584-2.545 9-6.137C16.584 3.045 13.09.5 9 .5z" fill="#131313"/>
    </svg>
    <svg viewBox="0 0 24 24" id="fb" xmlns="http://www.w3.org/2000/svg">
        <path d="M15.997 3.985h2.191V.169C17.81.117 16.51 0 14.996 0c-3.159 0-5.323 1.987-5.323 5.639V9H6.187v4.266h3.486V24h4.274V13.267h3.345l.531-4.266h-3.877V6.062c.001-1.233.333-2.077 2.051-2.077z"/>
    </svg>
    <svg fill="none" viewBox="0 0 15 15" id="hat" xmlns="http://www.w3.org/2000/svg">
        <path d="M7.5 1.875L.625 5.625 7.5 9.375l5.625-3.069v4.319h1.25v-5L7.5 1.875zM3.125 8.238v2.5L7.5 13.125l4.375-2.387v-2.5L7.5 10.625 3.125 8.238z" fill="#000"/>
    </svg>
    <svg viewBox="0 0 14 13" id="heart" xmlns="http://www.w3.org/2000/svg">
        <path d="M6.37 10.984v-.001C4.642 9.417 3.25 8.152 2.282 6.969 1.322 5.792.833 4.759.833 3.667.833 1.883 2.223.5 4 .5a3.51 3.51 0 012.62 1.212l.38.442.38-.442A3.51 3.51 0 0110 .5c1.778 0 3.167 1.383 3.167 3.167 0 1.092-.488 2.125-1.45 3.302-.967 1.183-2.36 2.448-4.086 4.014h0L7 11.558l-.63-.573z" stroke="#000"/>
    </svg>
    <svg fill="none" viewBox="0 0 12 14" id="human" xmlns="http://www.w3.org/2000/svg">
        <path d="M6.353 0C5.576 0 4.94.646 4.94 1.436c0 .797.635 1.436 1.412 1.436a1.42 1.42 0 001.412-1.436A1.423 1.423 0 006.353 0zM0 3.59v1.436h4.235v4.307l-3.579 3.64L1.652 14l4.743-4.832 2.781 1.695v2.778h1.412v-3.18a.697.697 0 00-.353-.618l-2.47-1.515V5.026H12V3.59H0z" fill="#000"/>
    </svg>
    <svg viewBox="0 0 512 512" id="inst" xmlns="http://www.w3.org/2000/svg">
        <path d="M352 0H160C71.648 0 0 71.648 0 160v192c0 88.352 71.648 160 160 160h192c88.352 0 160-71.648 160-160V160C512 71.648 440.352 0 352 0zm112 352c0 61.76-50.24 112-112 112H160c-61.76 0-112-50.24-112-112V160C48 98.24 98.24 48 160 48h192c61.76 0 112 50.24 112 112v192z"/>
        <path d="M256 128c-70.688 0-128 57.312-128 128s57.312 128 128 128 128-57.312 128-128-57.312-128-128-128zm0 208c-44.096 0-80-35.904-80-80 0-44.128 35.904-80 80-80s80 35.872 80 80c0 44.096-35.904 80-80 80z"/>
        <circle cx="393.6" cy="118.4" r="17.056"/>
    </svg>
    <svg fill="none" viewBox="0 0 16 16" id="like" xmlns="http://www.w3.org/2000/svg">
        <path opacity=".3" d="M15.333 6.667c0-.74-.6-1.334-1.333-1.334H9.787l.64-3.046a1.003 1.003 0 00-.274-.92l-.707-.7L5.06 5.053A1.33 1.33 0 004.667 6v6.667A1.333 1.333 0 006 14h6c.553 0 1.027-.333 1.226-.813l2.014-4.7c.06-.154.093-.314.093-.487V6.667zM.667 14h2.666V6H.667v8z" fill="#000"/>
    </svg>
    <svg fill="none" viewBox="0 0 37 23" id="mastercard" xmlns="http://www.w3.org/2000/svg">
        <path d="M23.624 2.972h-9.759v17.024h9.76V2.972z" fill="#FF5F00"/>
        <path d="M14.484 11.484c0-3.46 1.673-6.527 4.244-8.512A11.297 11.297 0 0011.85.656C5.686.656.697 5.498.697 11.484c0 5.985 4.988 10.828 11.154 10.828a11.3 11.3 0 006.877-2.316c-2.571-1.955-4.244-5.053-4.244-8.512z" fill="#EB001B"/>
        <path d="M36.79 11.484c0 5.985-4.987 10.828-11.152 10.828a11.3 11.3 0 01-6.878-2.316c2.602-1.985 4.244-5.053 4.244-8.512 0-3.46-1.673-6.527-4.244-8.512A11.297 11.297 0 0125.638.656c6.165 0 11.153 4.872 11.153 10.828z" fill="#F79E1B"/>
    </svg>
    <svg viewBox="0 0 492.004 492.004" id="next" xmlns="http://www.w3.org/2000/svg">
        <path d="M382.678 226.804L163.73 7.86C158.666 2.792 151.906 0 144.698 0s-13.968 2.792-19.032 7.86l-16.124 16.12c-10.492 10.504-10.492 27.576 0 38.064L293.398 245.9l-184.06 184.06c-5.064 5.068-7.86 11.824-7.86 19.028 0 7.212 2.796 13.968 7.86 19.04l16.124 16.116c5.068 5.068 11.824 7.86 19.032 7.86s13.968-2.792 19.032-7.86L382.678 265c5.076-5.084 7.864-11.872 7.848-19.088.016-7.244-2.772-14.028-7.848-19.108z"/>
    </svg>
    <svg fill="none" viewBox="0 0 19 21" id="play" xmlns="http://www.w3.org/2000/svg">
        <path d="M18 8.768c1.333.77 1.333 2.694 0 3.464L3.75 20.46c-1.333.77-3-.192-3-1.732V2.273C.75.733 2.417-.23 3.75.54L18 8.768z" fill="#fff"/>
    </svg>
    <svg fill="none" viewBox="0 0 54 54" id="play-big" xmlns="http://www.w3.org/2000/svg">
        <circle cx="27" cy="27" r="27" fill="#fff"/>
        <path d="M36 24.402c2 1.155 2 4.041 0 5.196l-10.184 5.88c-2 1.155-4.5-.289-4.5-2.598V21.12c0-2.31 2.5-3.753 4.5-2.598L36 24.402z" fill="#000"/>
    </svg>
    <svg viewBox="0 0 492 492" id="prev" xmlns="http://www.w3.org/2000/svg">
        <path d="M198.608 246.104L382.664 62.04c5.068-5.056 7.856-11.816 7.856-19.024 0-7.212-2.788-13.968-7.856-19.032l-16.128-16.12C361.476 2.792 354.712 0 347.504 0s-13.964 2.792-19.028 7.864L109.328 227.008c-5.084 5.08-7.868 11.868-7.848 19.084-.02 7.248 2.76 14.028 7.848 19.112l218.944 218.932c5.064 5.072 11.82 7.864 19.032 7.864 7.208 0 13.964-2.792 19.032-7.864l16.124-16.12c10.492-10.492 10.492-27.572 0-38.06L198.608 246.104z"/>
    </svg>
    <svg fill="none" viewBox="0 0 20 20" id="reload" xmlns="http://www.w3.org/2000/svg">
        <path d="M1.667 10a7.5 7.5 0 007.5 7.5c1.991 0 3.9-.783 5.333-2.167l-1.25-1.25a5.589 5.589 0 01-4.084 1.75c-5.2 0-7.8-6.283-4.125-9.958S15 4.808 15 10h-2.5l3.333 3.333h.083L19.166 10h-2.5a7.5 7.5 0 00-15 0z" fill="#000"/>
    </svg>
    <svg fill="none" viewBox="0 0 13 14" id="search" xmlns="http://www.w3.org/2000/svg">
        <path d="M4.829 0c1.28 0 2.508.548 3.414 1.523.905.975 1.414 2.298 1.414 3.677a5.455 5.455 0 01-1.159 3.384l.2.216h.588l3.714 4-1.114 1.2-3.715-4v-.632l-.2-.216c-.847.776-1.946 1.248-3.142 1.248-1.281 0-2.51-.548-3.415-1.523C.51 7.902 0 6.579 0 5.2c0-1.38.509-2.702 1.414-3.677C2.32.548 3.548 0 4.83 0zm0 1.6c-1.858 0-3.343 1.6-3.343 3.6S2.97 8.8 4.829 8.8c1.857 0 3.342-1.6 3.342-3.6S6.686 1.6 4.83 1.6z" fill="#030303"/>
    </svg>
    <svg fill="none" viewBox="0 0 20 20" id="trash" xmlns="http://www.w3.org/2000/svg">
        <path d="M7.5 2.5v.833H3.335V5h.833v10.833A1.666 1.666 0 005.834 17.5h8.333a1.666 1.666 0 001.667-1.667V5h.833V3.333h-4.166V2.5h-5zm0 4.167h1.667v7.5H7.501v-7.5zm3.334 0h1.667v7.5h-1.667v-7.5z" fill="#000"/>
    </svg>
    <svg viewBox="0 0 24 24" id="vk" xmlns="http://www.w3.org/2000/svg">
        <path d="M19.915 13.028c-.388-.49-.277-.708 0-1.146.005-.005 3.208-4.431 3.538-5.932l.002-.001c.164-.547 0-.949-.793-.949h-2.624c-.668 0-.976.345-1.141.731 0 0-1.336 3.198-3.226 5.271-.61.599-.892.791-1.225.791-.164 0-.419-.192-.419-.739V5.949c0-.656-.187-.949-.74-.949H9.161c-.419 0-.668.306-.668.591 0 .622.945.765 1.043 2.515v3.797c0 .832-.151.985-.486.985-.892 0-3.057-3.211-4.34-6.886-.259-.713-.512-1.001-1.185-1.001H.9c-.749 0-.9.345-.9.731 0 .682.892 4.073 4.148 8.553C6.318 17.343 9.374 19 12.154 19c1.671 0 1.875-.368 1.875-1.001 0-2.922-.151-3.198.686-3.198.388 0 1.056.192 2.616 1.667C19.114 18.217 19.407 19 20.405 19h2.624c.748 0 1.127-.368.909-1.094-.499-1.527-3.871-4.668-4.023-4.878z"/>
    </svg>
    <svg fill="none" viewBox="0 0 66 51" id="youtube" xmlns="http://www.w3.org/2000/svg">
        <path d="M26.476 36.275L43.33 25.42 26.476 14.565v21.71zm37.54-28.332c.423 1.701.715 3.98.91 6.875.227 2.895.325 5.392.325 7.563l.194 3.039c0 7.924-.52 13.75-1.428 17.477-.812 3.256-2.696 5.355-5.618 6.26-1.527.47-4.32.795-8.606 1.012-4.222.254-8.087.362-11.659.362l-5.163.217c-13.607 0-22.083-.579-25.428-1.592-2.923-.904-4.806-3.003-5.618-6.26-.422-1.7-.714-3.98-.91-6.874-.227-2.895-.324-5.392-.324-7.563L.496 25.42c0-7.924.52-13.75 1.429-17.477.812-3.256 2.695-5.355 5.618-6.26 1.526-.47 4.32-.795 8.606-1.012A194.32 194.32 0 0127.807.309l5.164-.217c13.607 0 22.083.579 25.428 1.592 2.922.904 4.806 3.003 5.618 6.26z" fill="#393939"/>
    </svg>
</svg>
