<svg width="18" height="16" viewBox="0 0 18 16" fill="none" xmlns="http://www.w3.org/2000/svg">
<path d="M2.33268 2.33333H4.83268L6.49935 0.666664H11.4993L13.166 2.33333H15.666C16.108 2.33333 16.532 2.50893 16.8445 2.82149C17.1571 3.13405 17.3327 3.55797 17.3327 4V14C17.3327 14.442 17.1571 14.8659 16.8445 15.1785C16.532 15.4911 16.108 15.6667 15.666 15.6667H2.33268C1.89065 15.6667 1.46673 15.4911 1.15417 15.1785C0.84161 14.8659 0.666016 14.442 0.666016 14V4C0.666016 3.55797 0.84161 3.13405 1.15417 2.82149C1.46673 2.50893 1.89065 2.33333 2.33268 2.33333V2.33333ZM8.99935 4.83333C7.89428 4.83333 6.83447 5.27232 6.05307 6.05372C5.27167 6.83512 4.83268 7.89493 4.83268 9C4.83268 10.1051 5.27167 11.1649 6.05307 11.9463C6.83447 12.7277 7.89428 13.1667 8.99935 13.1667C10.1044 13.1667 11.1642 12.7277 11.9456 11.9463C12.727 11.1649 13.166 10.1051 13.166 9C13.166 7.89493 12.727 6.83512 11.9456 6.05372C11.1642 5.27232 10.1044 4.83333 8.99935 4.83333V4.83333ZM8.99935 6.5C9.66239 6.5 10.2983 6.76339 10.7671 7.23223C11.236 7.70107 11.4993 8.33696 11.4993 9C11.4993 9.66304 11.236 10.2989 10.7671 10.7678C10.2983 11.2366 9.66239 11.5 8.99935 11.5C8.33631 11.5 7.70042 11.2366 7.23158 10.7678C6.76274 10.2989 6.49935 9.66304 6.49935 9C6.49935 8.33696 6.76274 7.70107 7.23158 7.23223C7.70042 6.76339 8.33631 6.5 8.99935 6.5V6.5Z" fill="black"/>
</svg>
