<svg width="18" height="13" viewBox="0 0 18 13" fill="none" xmlns="http://www.w3.org/2000/svg">
<path d="M9 4.18182C8.34901 4.18182 7.72469 4.44042 7.26437 4.90074C6.80406 5.36105 6.54545 5.98538 6.54545 6.63636C6.54545 7.28735 6.80406 7.91167 7.26437 8.37199C7.72469 8.83231 8.34901 9.09091 9 9.09091C9.65099 9.09091 10.2753 8.83231 10.7356 8.37199C11.1959 7.91167 11.4545 7.28735 11.4545 6.63636C11.4545 5.98538 11.1959 5.36105 10.7356 4.90074C10.2753 4.44042 9.65099 4.18182 9 4.18182ZM9 10.7273C7.91502 10.7273 6.87448 10.2963 6.10729 9.52907C5.3401 8.76188 4.90909 7.72134 4.90909 6.63636C4.90909 5.55139 5.3401 4.51085 6.10729 3.74365C6.87448 2.97646 7.91502 2.54545 9 2.54545C10.085 2.54545 11.1255 2.97646 11.8927 3.74365C12.6599 4.51085 13.0909 5.55139 13.0909 6.63636C13.0909 7.72134 12.6599 8.76188 11.8927 9.52907C11.1255 10.2963 10.085 10.7273 9 10.7273ZM9 0.5C4.90909 0.5 1.41545 3.04455 0 6.63636C1.41545 10.2282 4.90909 12.7727 9 12.7727C13.0909 12.7727 16.5845 10.2282 18 6.63636C16.5845 3.04455 13.0909 0.5 9 0.5Z" fill="#131313"/>
</svg>
