<svg width="37" height="23" viewBox="0 0 37 23" fill="none" xmlns="http://www.w3.org/2000/svg">
<path d="M23.6243 2.97168H13.8652V19.9956H23.6243V2.97168Z" fill="#FF5F00"/>
<path d="M14.4839 11.4837C14.4839 8.02475 16.1569 4.95685 18.7283 2.97173C16.8384 1.52801 14.4529 0.655762 11.8505 0.655762C5.68523 0.655762 0.697266 5.49824 0.697266 11.4837C0.697266 17.4691 5.68523 22.3116 11.8505 22.3116C14.4529 22.3116 16.8384 21.4393 18.7283 19.9956C16.1569 18.0406 14.4839 14.9426 14.4839 11.4837Z" fill="#EB001B"/>
<path d="M36.7908 11.4837C36.7908 17.4691 31.8028 22.3116 25.6376 22.3116C23.0352 22.3116 20.6496 21.4393 18.7598 19.9956C21.3622 18.0105 23.0042 14.9426 23.0042 11.4837C23.0042 8.02475 21.3312 4.95685 18.7598 2.97173C20.6496 1.52801 23.0352 0.655762 25.6376 0.655762C31.8028 0.655762 36.7908 5.52832 36.7908 11.4837Z" fill="#F79E1B"/>
</svg>
