<svg width="66" height="51" viewBox="0 0 66 51" fill="none" xmlns="http://www.w3.org/2000/svg">
<path d="M26.4758 36.275L43.3302 25.42L26.4758 14.565V36.275ZM64.0166 7.94345C64.4388 9.64407 64.731 11.9236 64.9259 14.8183C65.1532 17.7129 65.2506 20.2096 65.2506 22.3806L65.4455 25.42C65.4455 33.3442 64.9259 39.1697 64.0166 42.8966C63.2047 46.1531 61.3212 48.2517 58.3985 49.1563C56.8722 49.6267 54.0793 49.9523 49.7927 50.1694C45.571 50.4227 41.7065 50.5312 38.1343 50.5312L32.9708 50.7483C19.3639 50.7483 10.888 50.1694 7.5431 49.1563C4.62038 48.2517 2.73685 46.1531 1.92498 42.8966C1.50281 41.1959 1.21054 38.9164 1.01569 36.0217C0.788366 33.1271 0.690942 30.6304 0.690942 28.4594L0.496094 25.42C0.496094 17.4959 1.01569 11.6703 1.92498 7.94345C2.73685 4.68695 4.62038 2.58832 7.5431 1.68373C9.06941 1.21335 11.8622 0.8877 16.1489 0.6706C20.3706 0.417317 24.2351 0.308767 27.8073 0.308767L32.9708 0.0916672C46.5777 0.0916672 55.0536 0.670601 58.3985 1.68373C61.3212 2.58832 63.2047 4.68695 64.0166 7.94345Z" fill="#393939"/>
</svg>
